<?xml version='1.0' encoding='utf-8'?>
<!DOCTYPE svg>
<!-- Generator: Adobe Illustrator 15.0.0, SVG Export Plug-In . SVG Version: 6.00 Build 0)  -->
<svg xmlns="http://www.w3.org/2000/svg" x="0px" width="1.57481in" viewBox="0 0 113.386 73.572" xml:space="preserve" gorn="0" y="0px" version="1.1" enable-background="new 14.182 9.52 113.386 73.572" id="Schematic" xmlns:xml="http://www.w3.org/XML/1998/namespace" height="1.02183in" >
    <desc >
        <referenceFile >US100_Ultrasonic_Rangefinder_schematic.svg</referenceFile>
    </desc>
    <g  transform="translate(-14.182,-9.52)">
        <g >
            <g >
                <g >
                    <g >
                        <g >
                            <g >
                                <g >
                                    <rect x="14.781" width="112.25" fill="none" gorn="0.1.0.0.0.0.0.0.0.0" stroke-width="1.3883" y="9.911" stroke-linejoin="round" stroke="#000000" id="rect3210" height="55.569" stroke-linecap="round" />
                                    <g  transform="translate(-40.218089,-146.95082)">
                                        <g >
                                            <g >
                                                <g >
                                                    <g >
                                                        <g >
                                                            <g >
                                                                <g gorn="0.1.0.0.0.0.0.0.0.1.0.0.0.0.0.0.0" id="flowRoot3610" />
                                                            </g>
                                                        </g>
                                                    </g>
                                                </g>
                                            </g>
                                        </g>
                                    </g>
                                    <g >
                                        <line y1="65.265" fill="none" gorn="0.1.0.0.0.0.0.0.0.2.0" stroke-width="2.4" stroke-linejoin="round" stroke="#000000" x2="35.721" id="line3102" x1="35.721" stroke-linecap="round" y2="82.271" />
                                        <line y1="65.469" fill="none" gorn="0.1.0.0.0.0.0.0.0.2.1" stroke-width="2.4" stroke-linejoin="round" stroke="#000000" x2="69.403" id="line3102-0" x1="69.403" stroke-linecap="round" y2="82.476" />
                                        <line y1="65.469" fill="none" gorn="0.1.0.0.0.0.0.0.0.2.2" stroke-width="2.4" stroke-linejoin="round" stroke="#000000" x2="86.079" id="line3130-6" x1="86.079" stroke-linecap="round" y2="82.476" />
                                        <line y1="65.265" fill="none" gorn="0.1.0.0.0.0.0.0.0.2.3" stroke-width="2.4" stroke-linejoin="round" stroke="#000000" x2="52.728" id="line3130" x1="52.728" stroke-linecap="round" y2="82.271" />
                                        <g  transform="matrix(0,1,-1,0,0,0)">
                                            <g >
                                                <g >
                                                    <g >
                                                        <g >
                                                            <g >
                                                                <g >
                                                                    <g gorn="0.1.0.0.0.0.0.0.0.2.4.0.0.0.0.0.0.0" id="text3080-3" >
                                                                        <path gorn="0.1.0.0.0.0.0.0.0.2.4.0.0.0.0.0.0.0.0" id="path4031" d="M69.014-39.352l-1.332-3.436h0.493l0.893,2.496c0.071,0.199,0.132,0.387,0.18,0.562c0.054-0.188,0.116-0.375,0.186-0.562l0.927-2.496h0.465l-1.345,3.436H69.014z" />
                                                                        <path gorn="0.1.0.0.0.0.0.0.0.2.4.0.0.0.0.0.0.0.1" id="path4033" d="M73.688-40.557l0.454,0.115c-0.095,0.374-0.266,0.659-0.516,0.854c-0.246,0.196-0.55,0.293-0.907,0.293c-0.371,0-0.672-0.075-0.903-0.226c-0.232-0.15-0.408-0.37-0.529-0.655s-0.182-0.592-0.182-0.92c0-0.357,0.067-0.669,0.205-0.936c0.136-0.267,0.331-0.469,0.582-0.607c0.254-0.138,0.531-0.208,0.834-0.208c0.344,0,0.633,0.087,0.867,0.262c0.234,0.175,0.397,0.421,0.489,0.738l-0.447,0.105c-0.08-0.25-0.195-0.432-0.348-0.546c-0.151-0.114-0.342-0.171-0.572-0.171c-0.264,0-0.483,0.063-0.66,0.19c-0.179,0.126-0.303,0.296-0.375,0.51c-0.072,0.213-0.107,0.432-0.107,0.659c0,0.292,0.042,0.548,0.127,0.766s0.217,0.381,0.397,0.488c0.18,0.107,0.374,0.162,0.583,0.162c0.255,0,0.471-0.074,0.647-0.22C73.505-40.049,73.625-40.268,73.688-40.557z" />
                                                                        <path gorn="0.1.0.0.0.0.0.0.0.2.4.0.0.0.0.0.0.0.2" id="path4035" d="M77.156-40.557l0.455,0.115c-0.096,0.374-0.267,0.659-0.516,0.854c-0.247,0.196-0.551,0.293-0.908,0.293c-0.37,0-0.671-0.075-0.903-0.226s-0.408-0.37-0.529-0.655s-0.182-0.592-0.182-0.92c0-0.357,0.067-0.669,0.205-0.936c0.136-0.267,0.331-0.469,0.583-0.607c0.253-0.138,0.53-0.208,0.833-0.208c0.345,0,0.633,0.087,0.868,0.262c0.234,0.175,0.396,0.421,0.488,0.738l-0.447,0.105c-0.08-0.25-0.195-0.432-0.348-0.546c-0.151-0.114-0.342-0.171-0.571-0.171c-0.265,0-0.484,0.063-0.661,0.19c-0.179,0.126-0.303,0.296-0.374,0.51c-0.072,0.213-0.108,0.432-0.108,0.659c0,0.292,0.043,0.548,0.128,0.766s0.217,0.381,0.396,0.488c0.18,0.107,0.374,0.162,0.583,0.162c0.255,0,0.471-0.074,0.647-0.22C76.972-40.049,77.093-40.268,77.156-40.557z" />
                                                                    </g>
                                                                </g>
                                                            </g>
                                                        </g>
                                                    </g>
                                                </g>
                                            </g>
                                        </g>
                                        <g  transform="matrix(0,1,-1,0,0,0)">
                                            <g >
                                                <g >
                                                    <g >
                                                        <g >
                                                            <g >
                                                                <g >
                                                                    <g gorn="0.1.0.0.0.0.0.0.0.2.5.0.0.0.0.0.0.0" id="text3080-3-0-2" >
                                                                        <path gorn="0.1.0.0.0.0.0.0.0.2.5.0.0.0.0.0.0.0.0" id="path4013" d="M67.682-73.105v-3.435h2.484v0.405h-2.029v1.052h1.9v0.403h-1.9v1.169h2.108v0.405H67.682z" />
                                                                        <path gorn="0.1.0.0.0.0.0.0.0.2.5.0.0.0.0.0.0.0.1" id="path4015" d="M72.449-74.016l0.416,0.053c-0.047,0.285-0.162,0.511-0.35,0.672c-0.186,0.162-0.415,0.241-0.688,0.241c-0.34,0-0.614-0.109-0.82-0.332c-0.208-0.222-0.311-0.542-0.311-0.956c0-0.27,0.045-0.505,0.134-0.707c0.088-0.202,0.224-0.353,0.406-0.453s0.38-0.15,0.594-0.15c0.271,0,0.491,0.068,0.663,0.206c0.173,0.136,0.283,0.33,0.33,0.581l-0.409,0.064c-0.04-0.168-0.109-0.294-0.208-0.378c-0.1-0.084-0.22-0.127-0.359-0.127c-0.213,0-0.386,0.076-0.518,0.229c-0.133,0.152-0.199,0.393-0.199,0.723c0,0.334,0.063,0.577,0.191,0.729c0.128,0.15,0.295,0.226,0.501,0.226c0.166,0,0.305-0.05,0.416-0.151C72.349-73.647,72.42-73.805,72.449-74.016z" />
                                                                        <path gorn="0.1.0.0.0.0.0.0.0.2.5.0.0.0.0.0.0.0.2" id="path4017" d="M73.224-73.105v-3.435h0.421v1.232c0.197-0.228,0.445-0.342,0.746-0.342c0.184,0,0.345,0.035,0.48,0.109c0.136,0.072,0.232,0.173,0.293,0.301c0.057,0.128,0.087,0.314,0.087,0.558v1.576H74.83v-1.576c0-0.21-0.046-0.365-0.138-0.461c-0.09-0.096-0.22-0.144-0.387-0.144c-0.126,0-0.242,0.032-0.354,0.097c-0.109,0.064-0.188,0.152-0.235,0.265c-0.047,0.111-0.07,0.264-0.07,0.458v1.36L73.224-73.105L73.224-73.105z" />
                                                                        <path gorn="0.1.0.0.0.0.0.0.0.2.5.0.0.0.0.0.0.0.3" id="path4019" d="M75.739-74.349c0-0.46,0.128-0.804,0.384-1.023c0.215-0.184,0.476-0.277,0.783-0.277c0.342,0,0.621,0.113,0.839,0.337s0.326,0.533,0.326,0.928c0,0.321-0.049,0.573-0.146,0.757c-0.094,0.184-0.235,0.325-0.417,0.428c-0.185,0.102-0.385,0.15-0.602,0.15c-0.35,0-0.63-0.109-0.846-0.334C75.846-73.605,75.739-73.929,75.739-74.349z M76.173-74.349c0,0.318,0.069,0.558,0.208,0.717c0.14,0.158,0.315,0.237,0.525,0.237c0.209,0,0.383-0.08,0.521-0.239c0.14-0.158,0.21-0.402,0.21-0.728c0-0.309-0.071-0.542-0.21-0.7c-0.142-0.159-0.314-0.237-0.521-0.237c-0.212,0-0.386,0.078-0.525,0.235C76.242-74.905,76.173-74.668,76.173-74.349z" />
                                                                    </g>
                                                                </g>
                                                            </g>
                                                        </g>
                                                    </g>
                                                </g>
                                            </g>
                                        </g>
                                        <g  transform="matrix(0,1,-1,0,0,0)">
                                            <g >
                                                <g >
                                                    <g >
                                                        <g >
                                                            <g >
                                                                <g >
                                                                    <g gorn="0.1.0.0.0.0.0.0.0.2.6.0.0.0.0.0.0.0" id="text3080-3-0-2-0" >
                                                                        <path gorn="0.1.0.0.0.0.0.0.0.2.6.0.0.0.0.0.0.0.0" id="path4006" d="M69.406-90.75v-0.403l1.454-0.001v1.274c-0.223,0.179-0.453,0.313-0.691,0.401c-0.236,0.091-0.481,0.136-0.73,0.136c-0.338,0-0.646-0.073-0.92-0.217c-0.276-0.146-0.483-0.354-0.624-0.628s-0.212-0.578-0.212-0.915c0-0.335,0.071-0.646,0.21-0.937c0.141-0.29,0.342-0.505,0.604-0.646c0.263-0.14,0.564-0.212,0.908-0.212c0.248,0,0.473,0.042,0.673,0.121c0.202,0.081,0.358,0.192,0.473,0.337c0.115,0.145,0.201,0.332,0.26,0.562L70.4-91.765c-0.053-0.175-0.117-0.313-0.192-0.413s-0.186-0.18-0.329-0.24c-0.142-0.06-0.299-0.09-0.473-0.09c-0.207,0-0.387,0.032-0.539,0.095c-0.152,0.063-0.275,0.147-0.366,0.25c-0.094,0.104-0.166,0.217-0.217,0.341c-0.088,0.212-0.132,0.443-0.132,0.69c0,0.308,0.054,0.563,0.158,0.769c0.105,0.207,0.26,0.359,0.46,0.46c0.202,0.1,0.416,0.15,0.643,0.15c0.197,0,0.389-0.04,0.576-0.115c0.188-0.075,0.331-0.155,0.427-0.242v-0.641L69.406-90.75L69.406-90.75z" />
                                                                        <path gorn="0.1.0.0.0.0.0.0.0.2.6.0.0.0.0.0.0.0.1" id="path4008" d="M71.522-89.401v-3.436h0.467l1.805,2.696v-2.696h0.437v3.436h-0.467l-1.805-2.699v2.699H71.522z" />
                                                                        <path gorn="0.1.0.0.0.0.0.0.0.2.6.0.0.0.0.0.0.0.2" id="path4010" d="M74.996-89.401v-3.436h1.183c0.268,0,0.471,0.017,0.612,0.049c0.196,0.045,0.364,0.128,0.503,0.247c0.183,0.152,0.317,0.35,0.407,0.587s0.135,0.509,0.135,0.816c0,0.26-0.029,0.491-0.091,0.693c-0.061,0.2-0.139,0.369-0.234,0.501c-0.096,0.131-0.2,0.236-0.313,0.312c-0.114,0.075-0.251,0.133-0.411,0.172c-0.159,0.038-0.343,0.059-0.551,0.059H74.996z M75.45-89.807h0.734c0.227,0,0.404-0.021,0.533-0.063c0.129-0.042,0.231-0.102,0.308-0.179c0.108-0.107,0.191-0.252,0.252-0.434c0.061-0.183,0.09-0.403,0.09-0.663c0-0.358-0.058-0.636-0.178-0.828c-0.116-0.192-0.26-0.321-0.43-0.387c-0.121-0.048-0.316-0.071-0.587-0.071H75.45V-89.807z" />
                                                                    </g>
                                                                </g>
                                                            </g>
                                                        </g>
                                                    </g>
                                                </g>
                                            </g>
                                        </g>
                                        <g  transform="matrix(0,1,-1,0,0,0)">
                                            <g >
                                                <g >
                                                    <g >
                                                        <g >
                                                            <g >
                                                                <g >
                                                                    <g gorn="0.1.0.0.0.0.0.0.0.2.7.0.0.0.0.0.0.0" id="text3080-3-2" >
                                                                        <path gorn="0.1.0.0.0.0.0.0.0.2.7.0.0.0.0.0.0.0.0" id="path4022" d="M68.777-56.182v-3.03h-1.132v-0.406h2.723v0.406h-1.137v3.03H68.777z" />
                                                                        <path gorn="0.1.0.0.0.0.0.0.0.2.7.0.0.0.0.0.0.0.1" id="path4024" d="M70.779-56.182v-2.488h0.379v0.377c0.097-0.177,0.187-0.293,0.268-0.35c0.084-0.056,0.174-0.084,0.271-0.084c0.143,0,0.286,0.046,0.435,0.136l-0.146,0.391c-0.104-0.061-0.206-0.091-0.309-0.091c-0.093,0-0.175,0.028-0.25,0.083c-0.073,0.056-0.125,0.133-0.156,0.231c-0.047,0.15-0.07,0.314-0.07,0.492v1.303L70.779-56.182L70.779-56.182z" />
                                                                        <path gorn="0.1.0.0.0.0.0.0.0.2.7.0.0.0.0.0.0.0.2" id="path4026" d="M72.388-59.132v-0.485h0.421v0.485H72.388z M72.388-56.182v-2.488h0.421v2.488H72.388z" />
                                                                        <path gorn="0.1.0.0.0.0.0.0.0.2.7.0.0.0.0.0.0.0.3" id="path4028" d="M73.377-55.975l0.411,0.061c0.016,0.126,0.064,0.218,0.143,0.276c0.105,0.079,0.248,0.117,0.428,0.117c0.195,0,0.348-0.04,0.452-0.117c0.106-0.077,0.179-0.187,0.217-0.328c0.021-0.086,0.032-0.266,0.03-0.542c-0.184,0.216-0.414,0.326-0.688,0.326c-0.343,0-0.607-0.124-0.794-0.371c-0.188-0.247-0.282-0.543-0.282-0.888c0-0.237,0.044-0.457,0.129-0.657c0.086-0.201,0.211-0.355,0.375-0.465c0.162-0.109,0.354-0.164,0.574-0.164c0.294,0,0.536,0.118,0.727,0.356v-0.3h0.389v2.15c0,0.387-0.04,0.662-0.118,0.823c-0.079,0.161-0.202,0.29-0.376,0.383c-0.17,0.093-0.381,0.141-0.63,0.141c-0.297,0-0.538-0.067-0.72-0.201C73.46-55.507,73.371-55.708,73.377-55.975z M73.725-57.471c0,0.326,0.065,0.565,0.194,0.715c0.13,0.15,0.292,0.225,0.487,0.225c0.194,0,0.356-0.076,0.487-0.224c0.131-0.149,0.196-0.383,0.196-0.702c0-0.304-0.067-0.534-0.202-0.688c-0.135-0.154-0.298-0.232-0.488-0.232c-0.188,0-0.348,0.076-0.479,0.229C73.792-57.997,73.725-57.771,73.725-57.471z" />
                                                                    </g>
                                                                </g>
                                                            </g>
                                                        </g>
                                                    </g>
                                                </g>
                                            </g>
                                        </g>
                                        <rect x="32.283" width="4" fill="none" gorn="0.1.0.0.0.0.0.0.0.2.8" y="78.789" id="connector8" height="3.999" />
                                        <rect x="49.401" width="4" fill="none" gorn="0.1.0.0.0.0.0.0.0.2.9" y="78.934" id="connector9" height="4" />
                                        <rect x="66.043" width="3.999" fill="none" gorn="0.1.0.0.0.0.0.0.0.2.10" y="79.071" id="connector10" height="3.999" />
                                        <rect x="82.71" width="3.999" fill="none" gorn="0.1.0.0.0.0.0.0.0.2.11" y="79.062" id="connector11" height="3.999" />
                                        <line y1="65.469" fill="none" gorn="0.1.0.0.0.0.0.0.0.2.12" stroke-width="2.4" stroke-linejoin="round" stroke="#000000" x2="102.711" id="line3130-6_1_" x1="102.711" stroke-linecap="round" y2="82.476" />
                                        <g  transform="matrix(0,1,-1,0,0,0)">
                                            <g >
                                                <g >
                                                    <g >
                                                        <g >
                                                            <g >
                                                                <g >
                                                                    <g gorn="0.1.0.0.0.0.0.0.0.2.13.0.0.0.0.0.0.0" id="text3080-3-0-2-0_1_" >
                                                                        <path gorn="0.1.0.0.0.0.0.0.0.2.13.0.0.0.0.0.0.0.0" id="path4006_1_" d="M69.406-107.382v-0.403l1.454-0.002v1.275c-0.223,0.179-0.453,0.312-0.691,0.401c-0.236,0.089-0.481,0.134-0.73,0.134c-0.338,0-0.646-0.071-0.92-0.216c-0.276-0.144-0.483-0.352-0.624-0.625c-0.141-0.274-0.212-0.579-0.212-0.916c0-0.335,0.071-0.648,0.21-0.938c0.141-0.29,0.342-0.507,0.604-0.646c0.263-0.141,0.564-0.211,0.908-0.211c0.248,0,0.473,0.041,0.673,0.12c0.202,0.081,0.358,0.194,0.473,0.337c0.115,0.145,0.201,0.332,0.26,0.563l-0.409,0.113c-0.053-0.175-0.117-0.313-0.192-0.413c-0.075-0.1-0.186-0.182-0.329-0.24c-0.142-0.061-0.299-0.091-0.473-0.091c-0.207,0-0.387,0.032-0.539,0.096c-0.151,0.063-0.275,0.146-0.366,0.25c-0.094,0.103-0.166,0.216-0.217,0.338c-0.088,0.213-0.132,0.445-0.132,0.693c0,0.307,0.054,0.563,0.158,0.768c0.105,0.206,0.26,0.36,0.46,0.459c0.202,0.101,0.416,0.151,0.643,0.151c0.197,0,0.389-0.04,0.576-0.114c0.188-0.077,0.331-0.156,0.427-0.242v-0.641H69.406L69.406-107.382z" />
                                                                        <path gorn="0.1.0.0.0.0.0.0.0.2.13.0.0.0.0.0.0.0.1" id="path4008_1_" d="M71.522-106.033v-3.435h0.467l1.805,2.695v-2.695h0.437v3.435h-0.467l-1.805-2.7v2.7H71.522z" />
                                                                        <path gorn="0.1.0.0.0.0.0.0.0.2.13.0.0.0.0.0.0.0.2" id="path4010_1_" d="M74.996-106.033v-3.435h1.183c0.268,0,0.471,0.016,0.612,0.049c0.196,0.046,0.364,0.128,0.503,0.246c0.183,0.154,0.317,0.349,0.407,0.587s0.135,0.51,0.135,0.815c0,0.261-0.029,0.492-0.091,0.692c-0.061,0.202-0.139,0.369-0.234,0.501s-0.2,0.235-0.313,0.313c-0.114,0.075-0.251,0.132-0.411,0.172c-0.159,0.039-0.344,0.059-0.551,0.059H74.996z M75.45-106.44h0.734c0.227,0,0.404-0.019,0.533-0.062c0.129-0.042,0.231-0.102,0.308-0.179c0.108-0.108,0.191-0.252,0.252-0.436c0.061-0.182,0.09-0.402,0.09-0.661c0-0.358-0.058-0.636-0.178-0.829c-0.116-0.191-0.26-0.321-0.43-0.388c-0.121-0.047-0.316-0.069-0.587-0.069H75.45V-106.44z" />
                                                                    </g>
                                                                </g>
                                                            </g>
                                                        </g>
                                                    </g>
                                                </g>
                                            </g>
                                        </g>
                                        <rect x="99.343" width="3.999" fill="none" gorn="0.1.0.0.0.0.0.0.0.2.14" y="79.062" id="connector12pin" height="3.999" />
                                    </g>
                                    <g  transform="matrix(1 0 0 1 47.1685 30.0056)">
                                        <g >
                                            <g >
                                                <g >
                                                    <g >
                                                        <g >
                                                            <g >
                                                                <text font-size="15.8728" font-family="Droid Sans" >US-100</text>
                                                            </g>
                                                        </g>
                                                    </g>
                                                </g>
                                            </g>
                                        </g>
                                    </g>
                                    <g >
                                        <g  transform="matrix(1 0 0 1 57.7876 43.6306)">
                                            <g >
                                                <g >
                                                    <g >
                                                        <g >
                                                            <g >
                                                                <g >
                                                                    <text font-size="15.8728" font-family="Droid Sans" >CSC</text>
                                                                </g>
                                                            </g>
                                                        </g>
                                                    </g>
                                                </g>
                                            </g>
                                        </g>
                                    </g>
                                </g>
                            </g>
                        </g>
                    </g>
                </g>
            </g>
        </g>
    </g>
</svg>
